<?xml version="1.0" encoding="UTF-8" standalone="no"?>
<!-- Created with Inkscape (http://www.inkscape.org/) -->

<svg
   xmlns:dc="http://purl.org/dc/elements/1.1/"
   xmlns:cc="http://creativecommons.org/ns#"
   xmlns:rdf="http://www.w3.org/1999/02/22-rdf-syntax-ns#"
   xmlns:svg="http://www.w3.org/2000/svg"
   xmlns="http://www.w3.org/2000/svg"
   xmlns:sodipodi="http://sodipodi.sourceforge.net/DTD/sodipodi-0.dtd"
   xmlns:inkscape="http://www.inkscape.org/namespaces/inkscape"
   width="210mm"
   height="297mm"
   id="svg2"
   version="1.1"
   inkscape:version="0.48.4 r9939"
   sodipodi:docname="Zeichnung.svg">
  <defs
     id="defs4" />
  <sodipodi:namedview
     id="base"
     pagecolor="#ffffff"
     bordercolor="#666666"
     borderopacity="1.0"
     inkscape:pageopacity="0.0"
     inkscape:pageshadow="2"
     inkscape:zoom="0.70710678"
     inkscape:cx="453.81483"
     inkscape:cy="604.73978"
     inkscape:document-units="px"
     inkscape:current-layer="layer1"
     showgrid="false"
     inkscape:object-paths="true"
     inkscape:window-width="1855"
     inkscape:window-height="1056"
     inkscape:window-x="65"
     inkscape:window-y="24"
     inkscape:window-maximized="1" />
  <metadata
     id="metadata7">
    <rdf:RDF>
      <cc:Work
         rdf:about="">
        <dc:format>image/svg+xml</dc:format>
        <dc:type
           rdf:resource="http://purl.org/dc/dcmitype/StillImage" />
        <dc:title />
      </cc:Work>
    </rdf:RDF>
  </metadata>
  <g
     inkscape:label="Ebene 1"
     inkscape:groupmode="layer"
     id="layer1">
    <path
       inkscape:connector-curvature="0"
       style="fill:#a05a2c;stroke:#000000;stroke-width:1.46343540999999999px;stroke-linecap:butt;stroke-linejoin:miter;stroke-opacity:1"
       d="m 155.2584,66.238727 c -6.10699,-8.011266 -8.06035,-6.967787 -22.28781,4.896519 l -16.34343,12.833239 c -22.924987,18.001225 -20.6081,42.948185 -6.09859,61.508545 l 19.69505,26.54963 c 8.61159,10.69124 25.19804,18.02711 40.09027,6.33338 L 577.34501,727.0526 600.28319,709.04105 193.25207,160.34847 c 13.30012,-10.44357 10.40307,-28.07451 -0.96451,-44.11663 L 158.17682,70.249319 c -1.08995,-1.507454 -2.04595,-2.866144 -2.91847,-4.010532 z m 6.53622,49.486663 c 24.06727,32.44357 -0.65828,52.78611 -25.16032,19.75647 -21.53464,-29.02949 1.9497,-51.0452 25.16032,-19.75647 z"
       id="path2987" />
    <path
       style="fill:#cccccc;fill-opacity:1;fill-rule:nonzero;stroke:#000000;stroke-linecap:butt;stroke-linejoin:round;stroke-opacity:1"
       d="m 634.12837,69.708294 c -2.44002,6.770915 -5.10801,13.901206 -8.30081,21.712707 -3.57308,8.741939 -7.62785,18.099289 -12.18007,27.952939 -4.55222,9.85364 -9.59902,20.21442 -15.16875,30.97747 -5.56973,10.76305 -11.65661,21.92426 -18.28221,33.39441 -3.3128,5.73507 -6.75258,11.56058 -10.33653,17.4345 -3.58397,5.87391 -7.29919,11.80078 -11.15912,17.78825 -3.85992,5.98745 -7.84676,12.02244 -11.98745,18.09817 -4.14068,6.07573 -8.44496,12.18756 -12.87119,18.32626 l -134.03929,177.01172 19.69008,15.09836 140.01764,-184.9109 c 52.73447,-76.36041 86.7372,-133.55935 105.58823,-193.472345 -9.48386,-1.979502 -19.98397,-1.560956 -30.97053,0.588459 z"
       id="path3786"
       inkscape:connector-curvature="0" />
    <path
       style="fill:#999999;fill-opacity:1;fill-rule:nonzero;stroke:#000000;stroke-linecap:butt;stroke-linejoin:round;stroke-opacity:1"
       d="m 277.1509,454.21031 35.66715,25.53812 -3.37261,-2.58612 55.06909,-71.81674 35.28842,27.05915 L 533.84224,255.393 c 4.42623,-6.1387 8.73051,-12.25053 12.87119,-18.32626 4.14069,-6.07573 8.12753,-12.11072 11.98745,-18.09817 3.85993,-5.98747 7.57515,-11.91434 11.15912,-17.78825 3.58395,-5.87392 7.02373,-11.69943 10.33653,-17.4345 6.6256,-11.47015 12.71248,-22.63136 18.28221,-33.39441 5.56973,-10.76305 10.61653,-21.12383 15.16875,-30.97747 4.55222,-9.85365 8.60699,-19.211 12.18007,-27.952939 3.1928,-7.811501 5.86079,-14.941792 8.30081,-21.712707 -43.59596,8.529134 -95.04385,45.481036 -122.89578,79.231266 L 277.1509,454.21031 z"
       id="rect2991"
       inkscape:connector-curvature="0" />
    <path
       style="fill:#c87137;fill-opacity:1;fill-rule:nonzero;stroke:#000000;stroke-width:0.91789019;stroke-linecap:butt;stroke-linejoin:round;stroke-opacity:1"
       d="M 266.3436,456.59519 96.781752,677.7243 139.48494,710.46912 309.04678,489.34 266.3436,456.59519 z"
       id="path3791"
       inkscape:connector-curvature="0" />
    <path
       style="fill:#000000;fill-opacity:1;fill-rule:nonzero;stroke:#000000;stroke-width:0.91789019;stroke-linecap:butt;stroke-linejoin:round;stroke-opacity:1"
       d="M 266.3436,456.59519 309.04678,489.34 352.09804,433.19598 309.39485,400.45116 266.3436,456.59519 z"
       id="rect2989"
       inkscape:connector-curvature="0" />
    <path
       style="fill:none;stroke:#000000;stroke-width:1px;stroke-linecap:butt;stroke-linejoin:miter;stroke-opacity:1"
       d="M 111.1358,688.73099 323.7489,411.45784"
       id="path3793"
       inkscape:connector-curvature="0" />
  </g>
</svg>
